<svg aria-hidden="true" style="position: absolute; width: 0; height: 0; overflow: hidden;" version="1.1" xmlns="http://www.w3.org/2000/svg" xmlns:xlink="http://www.w3.org/1999/xlink">
<defs>
<symbol id="burger-menu-close" viewBox="0 0 32 32">
<path d="M23.733 10.304l-1.504-1.504-5.963 5.963-5.963-5.963-1.504 1.504 5.963 5.963-5.963 5.963 1.504 1.504 5.963-5.963 5.963 5.963 1.504-1.504-5.963-5.963 5.963-5.963z"></path>
</symbol>
<symbol id="burger-menu-open" viewBox="0 0 32 32">
<path d="M6.4 11.733v-2.133h19.2v2.133h-19.2zM6.4 17.067h19.2v-2.133h-19.2v2.133zM6.4 22.4h19.2v-2.133h-19.2v2.133z"></path>
</symbol>
<symbol id="logo-barber-shop" viewBox="0 0 39 32">
<path d="M22.179 9.737l-0.73-0.577c-0.114-0.096-0.26-0.141-0.406-0.126s-0.28 0.089-0.374 0.207l-10.099 12.017 0.156 0.179 2.501-2.389c-0.083-0.035-0.152-0.099-0.195-0.181s-0.056-0.177-0.038-0.268c0.018-0.091 0.066-0.173 0.136-0.231s0.158-0.089 0.247-0.088c0.081 0 0.16 0.027 0.225 0.077s0.113 0.12 0.137 0.2l3.298-3.169c0.050-0.042 0.113-0.065 0.178-0.065s0.128 0.023 0.178 0.065l0.167 0.127c0.056 0.042 0.126 0.061 0.195 0.052s0.133-0.044 0.178-0.098l4.312-5.010c0.046-0.050 0.081-0.109 0.103-0.174s0.030-0.134 0.023-0.202c-0.006-0.068-0.027-0.135-0.060-0.194s-0.078-0.111-0.133-0.151v0z"></path>
<path d="M26.925 13.119c-2.21 1.629-4.686 2.832-7.309 3.55-2.603 0.686-5.266 1.096-7.949 1.224 0.054 0.41 0.151 0.813 0.29 1.201 1.515 1.42 12.924-1.004 15.152-3.809 0.473-0.583-0.184-2.164-0.184-2.164zM13.378 19.046c-0.075 0-0.148-0.023-0.21-0.066s-0.111-0.104-0.14-0.176c-0.029-0.072-0.036-0.151-0.022-0.227s0.051-0.146 0.104-0.201c0.053-0.055 0.12-0.092 0.194-0.107s0.15-0.007 0.219 0.022c0.069 0.030 0.128 0.080 0.17 0.145s0.064 0.14 0.064 0.218c0.001 0.052-0.008 0.103-0.027 0.151s-0.047 0.092-0.082 0.128c-0.035 0.037-0.077 0.065-0.124 0.085s-0.096 0.029-0.146 0.028v0z"></path>
<path d="M2.599 12.288l0.089-0.398 1.448 0.341c0.12 0.229 0.193 0.48 0.217 0.739 0.028 0.274 0.011 0.551-0.050 0.82-0.072 0.372-0.237 0.719-0.479 1.004-0.23 0.27-0.527 0.469-0.858 0.577-0.341 0.109-0.705 0.123-1.053 0.040-0.349-0.078-0.671-0.254-0.93-0.508-0.256-0.244-0.439-0.558-0.529-0.906-0.1-0.378-0.1-0.777 0-1.154 0.060-0.283 0.167-0.552 0.318-0.796 0.142-0.222 0.333-0.406 0.557-0.537l0.201 0.317c-0.192 0.122-0.357 0.285-0.484 0.478s-0.213 0.412-0.252 0.642c-0.069 0.299-0.063 0.611 0.017 0.906 0.075 0.281 0.223 0.534 0.429 0.733 0.211 0.212 0.476 0.358 0.763 0.421 0.279 0.081 0.574 0.081 0.852 0 0.267-0.091 0.507-0.252 0.696-0.467 0.195-0.232 0.329-0.513 0.39-0.814 0.092-0.366 0.068-0.752-0.067-1.102l-1.276-0.335z"></path>
<path d="M5.752 8.657l-1.298 1.795 0.557 1.033-0.256 0.358-2.061-3.896 0.24-0.34 4.195 0.935-0.262 0.358-1.114-0.242zM5.384 8.565l-2.228-0.519 1.114 2.072 1.114-1.553z"></path>
<path d="M5.384 4.935l0.334-0.26 2.122 2.944 1.749-1.356 0.212 0.294-2.078 1.61-2.34-3.232z"></path>
<path d="M8.893 2.528l0.373-0.173 1.471 3.336 1.989-0.935 0.145 0.335-2.362 1.114-1.615-3.677z"></path>
<path d="M16.235 3.855l0.084 0.364-2.685 0.652-0.891-3.936 2.607-0.629 0.078 0.358-2.228 0.537 0.318 1.397 1.961-0.479 0.084 0.358-1.966 0.473 0.334 1.46 2.306-0.554z"></path>
<path d="M20.062 4l-0.93-1.27c-0.104 0.006-0.208 0.006-0.312 0l-1.047 0.035 0.039 1.281h-0.412l-0.128-4.040 1.482-0.006c0.419-0.040 0.838 0.077 1.181 0.329 0.145 0.121 0.261 0.274 0.34 0.448s0.119 0.364 0.117 0.557c0.016 0.285-0.056 0.568-0.206 0.808-0.16 0.23-0.386 0.402-0.646 0.491l0.975 1.351-0.451 0.017zM19.672 2.101c0.1-0.095 0.178-0.213 0.227-0.344s0.069-0.272 0.057-0.412c0.003-0.141-0.025-0.281-0.082-0.409s-0.141-0.241-0.247-0.33c-0.257-0.18-0.565-0.264-0.875-0.237l-1.058 0.040 0.067 2.020 1.036-0.035c0.316 0.012 0.626-0.092 0.875-0.294z"></path>
<path d="M23.009 2.926l-0.201 1.379-0.407-0.064 0.206-1.356-1.153-2.886 0.434 0.069 0.986 2.459 1.671-2.037 0.39 0.087-1.927 2.349z"></path>
<path d="M28.518 2.684l0.485 0.652-0.212 0.173-0.485-0.67-0.306 0.756-0.234-0.104 0.312-0.756-0.802 0.11v-0.277l0.791-0.092-0.49-0.652 0.217-0.173 0.429 0.658 0.301-0.762 0.24 0.104-0.284 0.773 0.802-0.115v0.283l-0.763 0.092z"></path>
<path d="M30.379 7.336c-0.132-0.21-0.214-0.449-0.24-0.698l0.329-0.15c0.025 0.229 0.097 0.449 0.212 0.646 0.124 0.221 0.287 0.417 0.479 0.577 0.199 0.197 0.452 0.324 0.724 0.364 0.098 0.009 0.197-0.006 0.289-0.045s0.172-0.101 0.235-0.18c0.046-0.053 0.081-0.115 0.103-0.182s0.030-0.139 0.025-0.21c-0.018-0.141-0.064-0.276-0.134-0.398-0.105-0.177-0.218-0.349-0.34-0.514-0.148-0.201-0.282-0.413-0.401-0.635-0.091-0.166-0.14-0.352-0.145-0.543-0-0.214 0.077-0.42 0.217-0.577 0.121-0.152 0.282-0.266 0.462-0.329 0.202-0.060 0.416-0.060 0.618 0 0.26 0.088 0.501 0.229 0.707 0.416 0.172 0.148 0.323 0.319 0.451 0.508 0.118 0.176 0.207 0.371 0.262 0.577l-0.318 0.173c-0.055-0.192-0.138-0.375-0.245-0.543-0.107-0.149-0.232-0.283-0.373-0.398-0.196-0.196-0.448-0.32-0.719-0.352-0.099-0.009-0.199 0.008-0.291 0.050s-0.171 0.106-0.233 0.187c-0.047 0.052-0.083 0.114-0.105 0.182s-0.030 0.14-0.023 0.211c0.013 0.146 0.059 0.286 0.134 0.41 0.078 0.133 0.189 0.306 0.34 0.514 0.149 0.197 0.283 0.405 0.401 0.623 0.093 0.165 0.144 0.352 0.15 0.543 0 0.214-0.077 0.42-0.217 0.577-0.122 0.154-0.284 0.269-0.468 0.329-0.202 0.063-0.417 0.063-0.618 0-0.262-0.088-0.504-0.229-0.713-0.416-0.225-0.203-0.413-0.445-0.557-0.716v0z"></path>
<path d="M35.983 8.178l-0.785-1.154 0.29-0.214 1.81 2.678-0.29 0.214-0.785-1.154-2.908 2.107-0.234-0.352 2.902-2.124z"></path>
<path d="M34.735 12.923c0.099-0.349 0.293-0.661 0.557-0.9 0.259-0.24 0.574-0.405 0.914-0.479 0.346-0.082 0.708-0.068 1.047 0.040 0.328 0.112 0.621 0.311 0.852 0.577 0.24 0.286 0.403 0.632 0.474 1.004 0.092 0.365 0.092 0.749 0 1.114-0.102 0.348-0.295 0.659-0.557 0.9-0.266 0.247-0.589 0.418-0.937 0.496s-0.711 0.063-1.052-0.046c-0.33-0.107-0.625-0.307-0.852-0.577-0.239-0.285-0.402-0.629-0.473-0.999-0.085-0.373-0.076-0.763 0.028-1.131v0zM35.465 14.758c0.186 0.219 0.427 0.381 0.696 0.467 0.278 0.083 0.571 0.093 0.853 0.029s0.544-0.201 0.762-0.398c0.206-0.196 0.357-0.445 0.44-0.721 0.078-0.292 0.085-0.599 0.022-0.895s-0.195-0.571-0.384-0.802c-0.194-0.22-0.443-0.382-0.719-0.467-0.281-0.077-0.577-0.077-0.858 0-0.284 0.056-0.546 0.194-0.758 0.398-0.207 0.197-0.36 0.448-0.44 0.727-0.076 0.293-0.076 0.602 0 0.895 0.061 0.286 0.194 0.551 0.384 0.768v0z"></path>
<path d="M34.312 19.623l1.443-0.577c0-0.104 0.033-0.208 0.061-0.317l0.273-1.045-1.181-0.317 0.106-0.41 3.766 1.045-0.379 1.46c-0.085 0.426-0.314 0.807-0.646 1.073-0.152 0.11-0.327 0.181-0.511 0.209s-0.371 0.012-0.548-0.048c-0.269-0.060-0.51-0.214-0.683-0.435s-0.268-0.497-0.27-0.782l-1.537 0.577 0.106-0.433zM36.178 19.785c0.065 0.123 0.154 0.23 0.26 0.317s0.229 0.149 0.359 0.186c0.131 0.036 0.267 0.044 0.401 0.025s0.262-0.068 0.378-0.14c0.246-0.205 0.414-0.493 0.473-0.814l0.267-1.039-1.888-0.525-0.267 1.039c-0.103 0.31-0.097 0.647 0.017 0.952v0z"></path>
<path d="M32.312 23.341l-0.284-0.225 1.671-2.28 3.108 2.441-1.615 2.211-0.284-0.225 1.365-1.864-1.114-0.872-1.22 1.668-0.279-0.219 1.248-1.668-1.153-0.906-1.443 1.939z"></path>
<path d="M31.008 27.94l-0.797 0.046v-0.277l0.797-0.006-0.429-0.687 0.217-0.144 0.423 0.693 0.345-0.773 0.24 0.133-0.379 0.727 0.797-0.046v0.283h-0.808l0.429 0.687-0.217 0.144-0.423-0.693-0.368 0.75-0.234-0.139 0.407-0.698z"></path>
<path d="M23.767 27.479l0.674 0.387c0.113-0.225 0.271-0.422 0.463-0.58s0.414-0.27 0.651-0.332c0.221-0.072 0.454-0.097 0.685-0.075 0.2 0.016 0.393 0.088 0.557 0.208 0.148 0.116 0.258 0.278 0.312 0.462 0.067 0.228 0.055 0.473-0.033 0.693-0.14 0.299-0.328 0.57-0.557 0.802 0.184 0.102 0.354 0.228 0.507 0.375 0.105 0.112 0.183 0.249 0.228 0.398 0.029 0.116 0.030 0.238 0.005 0.355s-0.076 0.227-0.15 0.32c-0.149 0.222-0.371 0.38-0.624 0.444-0.222 0.088-0.468 0.088-0.691 0-0.099-0.044-0.187-0.111-0.256-0.196s-0.119-0.186-0.145-0.294c-0.058-0.191-0.044-0.397 0.039-0.577 0.128-0.262 0.295-0.502 0.496-0.71l-1.343-0.773c-0.051 0.272-0.063 0.55-0.033 0.825h-0.34c-0.023-0.339 0.015-0.679 0.111-1.004l-0.702-0.404 0.145-0.323zM24.736 28.056l1.476 0.848c0.194-0.191 0.354-0.416 0.474-0.664 0.061-0.167 0.061-0.352 0-0.519-0.025-0.1-0.074-0.192-0.142-0.267s-0.153-0.132-0.248-0.165c-0.231-0.081-0.482-0.081-0.713 0-0.189 0.052-0.365 0.146-0.515 0.275s-0.271 0.292-0.354 0.475l0.022 0.017zM26.831 30.364c0.036-0.064 0.059-0.135 0.067-0.209s0-0.148-0.022-0.219c-0.034-0.114-0.095-0.217-0.178-0.3-0.142-0.124-0.297-0.23-0.462-0.317-0.169 0.173-0.317 0.367-0.44 0.577-0.067 0.131-0.083 0.284-0.045 0.427 0.018 0.066 0.049 0.127 0.091 0.18s0.095 0.096 0.154 0.126c0.142 0.055 0.298 0.055 0.44 0 0.151-0.042 0.284-0.138 0.373-0.271l0.022 0.006z"></path>
<path d="M16.976 31.929l0.078-4.040h0.396l-0.061 3.232 1.582-2.69h0.195l1.482 2.736 0.056-3.215h0.396l-0.072 4.040h-0.34l-1.638-3.019-1.732 2.961-0.34-0.006z"></path>
<path d="M15.038 27.704c0.255 0.252 0.437 0.571 0.527 0.924s0.083 0.724-0.020 1.073c-0.092 0.357-0.274 0.682-0.529 0.941-0.248 0.252-0.558 0.428-0.897 0.508-0.357 0.084-0.729 0.072-1.081-0.035-0.35-0.089-0.673-0.27-0.936-0.525-0.251-0.248-0.43-0.564-0.518-0.912-0.086-0.36-0.079-0.736 0.018-1.092s0.283-0.68 0.539-0.939c0.243-0.252 0.547-0.431 0.88-0.519 0.355-0.083 0.725-0.071 1.075 0.035 0.354 0.093 0.679 0.28 0.941 0.543zM13.138 27.502c-0.272 0.066-0.522 0.21-0.719 0.416-0.205 0.212-0.351 0.477-0.423 0.768-0.078 0.289-0.078 0.594 0 0.883 0.066 0.281 0.207 0.537 0.407 0.739 0.21 0.213 0.469 0.366 0.752 0.444 0.283 0.075 0.58 0.075 0.863 0 0.273-0.069 0.523-0.213 0.724-0.416 0.204-0.213 0.35-0.477 0.423-0.768 0.078-0.291 0.078-0.598 0-0.889-0.071-0.28-0.214-0.535-0.412-0.739-0.211-0.213-0.472-0.364-0.758-0.439-0.281-0.080-0.577-0.080-0.858 0z"></path>
<path d="M8.921 24.818l0.15 1.587c0.096 0.042 0.189 0.090 0.279 0.144l0.908 0.543 0.613-1.12 0.362 0.214-1.95 3.48-1.27-0.756c-0.375-0.195-0.672-0.523-0.836-0.923-0.061-0.181-0.081-0.373-0.060-0.563s0.084-0.372 0.182-0.534c0.129-0.253 0.335-0.456 0.585-0.577 0.254-0.109 0.535-0.131 0.802-0.063l-0.162-1.697 0.396 0.265zM8.286 26.642c-0.131 0.034-0.254 0.095-0.361 0.179s-0.198 0.19-0.265 0.312c-0.067 0.121-0.11 0.255-0.126 0.394s-0.005 0.279 0.033 0.414c0.131 0.299 0.357 0.541 0.641 0.687l0.897 0.537 0.975-1.732-0.897-0.537c-0.258-0.2-0.575-0.3-0.897-0.283v0.029z"></path>
<path d="M5.623 22.111l0.251-0.26 1.922 2.049-2.785 2.817-1.855-1.985 0.256-0.26 1.576 1.68 0.953-0.998-1.381-1.489 0.267-0.265 1.409 1.501 1.036-1.045-1.649-1.743z"></path>
<path d="M1.484 19.843l0.134-0.797 0.262 0.040-0.15 0.82 0.741-0.283 0.089 0.254-0.752 0.265 0.618 0.543-0.178 0.208-0.596-0.577-0.139 0.82-0.267-0.052 0.156-0.82-0.746 0.277-0.084-0.225 0.746-0.271-0.618-0.537 0.184-0.208 0.602 0.543z"></path>
</symbol>
<symbol id="logo-facebook" viewBox="0 0 32 32">
<path d="M21.329 5.313h2.921v-5.088c-0.504-0.069-2.237-0.225-4.256-0.225-4.212 0-7.097 2.649-7.097 7.519v4.481h-4.648v5.688h4.648v14.312h5.699v-14.311h4.46l0.708-5.688h-5.169v-3.919c0.001-1.644 0.444-2.769 2.735-2.769z"></path>
</symbol>
<symbol id="logo-instagram" viewBox="0 0 32 32">
<path d="M31.969 9.408c-0.075-1.7-0.35-2.869-0.744-3.882-0.406-1.075-1.031-2.038-1.85-2.838-0.8-0.813-1.769-1.444-2.832-1.844-1.019-0.394-2.182-0.669-3.882-0.744-1.713-0.081-2.257-0.1-6.601-0.1s-4.888 0.019-6.595 0.094c-1.7 0.075-2.869 0.35-3.882 0.744-1.075 0.406-2.038 1.031-2.838 1.85-0.813 0.8-1.444 1.769-1.844 2.832-0.394 1.019-0.669 2.182-0.744 3.882-0.081 1.713-0.1 2.257-0.1 6.601s0.019 4.888 0.094 6.595c0.075 1.7 0.35 2.869 0.744 3.882 0.406 1.075 1.038 2.038 1.85 2.838 0.8 0.813 1.769 1.444 2.832 1.844 1.019 0.394 2.182 0.669 3.882 0.744 1.706 0.075 2.25 0.094 6.595 0.094s4.888-0.019 6.595-0.094c1.7-0.075 2.869-0.35 3.882-0.744 2.151-0.832 3.851-2.532 4.682-4.682 0.394-1.019 0.669-2.182 0.744-3.882 0.075-1.707 0.094-2.251 0.094-6.595s-0.006-4.888-0.081-6.595zM29.087 22.473c-0.069 1.563-0.331 2.407-0.55 2.969-0.538 1.394-1.644 2.5-3.038 3.038-0.563 0.219-1.413 0.481-2.969 0.55-1.688 0.075-2.194 0.094-6.464 0.094s-4.782-0.019-6.464-0.094c-1.563-0.069-2.407-0.331-2.969-0.55-0.694-0.256-1.325-0.663-1.838-1.194-0.531-0.519-0.938-1.144-1.194-1.838-0.219-0.563-0.481-1.413-0.55-2.969-0.075-1.688-0.094-2.194-0.094-6.464s0.019-4.782 0.094-6.464c0.069-1.563 0.331-2.407 0.55-2.969 0.256-0.694 0.663-1.325 1.2-1.838 0.519-0.531 1.144-0.938 1.838-1.194 0.563-0.219 1.413-0.481 2.969-0.55 1.688-0.075 2.194-0.094 6.464-0.094 4.276 0 4.782 0.019 6.464 0.094 1.563 0.069 2.407 0.331 2.969 0.55 0.694 0.256 1.325 0.662 1.838 1.194 0.531 0.519 0.938 1.144 1.194 1.838 0.219 0.563 0.481 1.413 0.55 2.969 0.075 1.688 0.094 2.194 0.094 6.464s-0.019 4.77-0.094 6.458z"></path>
<path d="M16.059 7.783c-4.538 0-8.22 3.682-8.22 8.22s3.682 8.22 8.22 8.22c4.538 0 8.22-3.682 8.22-8.22s-3.682-8.22-8.22-8.22zM16.059 21.335c-2.944 0-5.332-2.388-5.332-5.332s2.388-5.332 5.332-5.332c2.944 0 5.332 2.388 5.332 5.332s-2.388 5.332-5.332 5.332z"></path>
<path d="M26.524 7.458c0 1.060-0.859 1.919-1.919 1.919s-1.919-0.859-1.919-1.919c0-1.060 0.859-1.919 1.919-1.919s1.919 0.859 1.919 1.919z"></path>
</symbol>
<symbol id="logo-linkedin" viewBox="0 0 32 32">
<path d="M31.992 32v-0.001h0.008v-11.736c0-5.741-1.236-10.164-7.948-10.164-3.227 0-5.392 1.771-6.276 3.449h-0.093v-2.913h-6.364v21.364h6.627v-10.579c0-2.785 0.528-5.479 3.977-5.479 3.399 0 3.449 3.179 3.449 5.657v10.401h6.62z"></path>
<path d="M0.528 10.636h6.635v21.364h-6.635v-21.364z"></path>
<path d="M3.843 0c-2.121 0-3.843 1.721-3.843 3.843s1.721 3.879 3.843 3.879c2.121 0 3.843-1.757 3.843-3.879-0.001-2.121-1.723-3.843-3.843-3.843v0z"></path>
</symbol>
<symbol id="logo-twitter" viewBox="0 0 32 32">
<path d="M32 6.078c-1.19 0.522-2.458 0.868-3.78 1.036 1.36-0.812 2.398-2.088 2.886-3.626-1.268 0.756-2.668 1.29-4.16 1.588-1.204-1.282-2.92-2.076-4.792-2.076-3.632 0-6.556 2.948-6.556 6.562 0 0.52 0.044 1.020 0.152 1.496-5.454-0.266-10.28-2.88-13.522-6.862-0.566 0.982-0.898 2.106-0.898 3.316 0 2.272 1.17 4.286 2.914 5.452-1.054-0.020-2.088-0.326-2.964-0.808 0 0.020 0 0.046 0 0.072 0 3.188 2.274 5.836 5.256 6.446-0.534 0.146-1.116 0.216-1.72 0.216-0.42 0-0.844-0.024-1.242-0.112 0.85 2.598 3.262 4.508 6.13 4.57-2.232 1.746-5.066 2.798-8.134 2.798-0.538 0-1.054-0.024-1.57-0.090 2.906 1.874 6.35 2.944 10.064 2.944 12.072 0 18.672-10 18.672-18.668 0-0.29-0.010-0.57-0.024-0.848 1.302-0.924 2.396-2.078 3.288-3.406z"></path>
</symbol>
<symbol id="logo-map-pin" viewBox="0 0 32 32">
<path d="M15.833 5.333c-5.054 0-9.167 3.119-9.167 6.952 0 4.818 9.176 13.048 9.176 13.048s9.158-8.467 9.158-13.048c0-3.833-4.112-6.952-9.167-6.952zM18.599 14.321c-0.763 0.578-1.764 0.867-2.766 0.867s-2.003-0.289-2.766-0.867c-1.525-1.157-1.525-3.038 0-4.195 0.739-0.56 1.721-0.869 2.766-0.869s2.027 0.309 2.766 0.869c1.525 1.157 1.525 3.038 0 4.195z"></path>
</symbol>
<symbol id="logo-envelope" viewBox="0 0 32 32">
<path d="M5.52 6.127c-0.473 0.143-0.906 0.397-1.262 0.741s-0.625 0.766-0.786 1.234l-0.139 0.405v14.987l0.139 0.405c0.331 0.971 1.143 1.733 2.135 2.007 0.319 0.089 0.952 0.095 10.393 0.095s10.075-0.005 10.393-0.095c0.491-0.137 0.942-0.391 1.314-0.741s0.653-0.784 0.821-1.266l0.139-0.405v-14.987l-0.139-0.405c-0.331-0.967-1.153-1.744-2.109-1.991-0.293-0.075-1.379-0.084-10.453-0.080-9.419 0.004-10.148 0.011-10.445 0.096zM26.357 7.511c0.516 0.253 0.948 0.856 0.949 1.323v0.221l-0.207-0.208c-0.221-0.22-0.433-0.267-0.66-0.147-0.063 0.033-2.419 1.791-5.236 3.905-2.819 2.113-5.16 3.843-5.204 3.843s-2.385-1.729-5.204-3.843c-1.738-1.312-3.483-2.614-5.236-3.905-0.227-0.12-0.439-0.073-0.66 0.147l-0.207 0.208v-0.209c0-0.396 0.279-0.881 0.667-1.16 0.477-0.341-0.313-0.319 10.693-0.308l10.053 0.009 0.251 0.124zM10.376 13.959c2.935 2.199 5.4 4.013 5.48 4.033 0.095 0.020 0.193 0.020 0.288 0 0.14-0.035 10.641-7.867 10.989-8.196l0.173-0.164v6.877l-0.001 6.877-0.124 0.267c-0.203 0.394-0.532 0.709-0.936 0.892l-0.299 0.121h-19.893l-0.297-0.12c-0.402-0.179-0.731-0.491-0.932-0.883l-0.129-0.277-0.001-6.877v-6.877l0.173 0.164c0.095 0.091 2.575 1.963 5.509 4.163z"></path>
</symbol>
<symbol id="logo-mobile" viewBox="0 0 32 32">
<path d="M9.778 4h12.445c0.982 0 1.778 0.716 1.778 1.6v20.8c0 0.884-0.796 1.6-1.778 1.6h-12.444c-0.982 0-1.778-0.716-1.778-1.6v-20.8c0-0.884 0.796-1.6 1.778-1.6zM22.286 6.5h-12.571v17h12.571v-17zM17.714 26c0 0.829-0.767 1.5-1.714 1.5s-1.714-0.671-1.714-1.5c0-0.829 0.767-1.5 1.714-1.5s1.714 0.671 1.714 1.5zM18.667 4.96h-5.333v0.96h5.333v-0.96z"></path>
</symbol>
</defs>
</svg>
